<?xml version="1.0" encoding="UTF-8"?>
<svg version="1.1" xmlns="http://www.w3.org/2000/svg" width="96" height="96">
<path d="M0 0 C2.5968769 1.81781383 5.08792251 3.69263978 7.5 5.75 C10.04171204 4.57690214 12.22883744 3.2591503 14.5625 1.6875 C20.4682568 -2.2077864 26.63144255 -1.8237657 33.5 -1.25 C39.61947627 0.48421981 43.87326504 5.76067817 47.5 10.75 C48.58015957 13.9904787 48.73654804 16.52765692 48.8125 19.9375 C48.86857422 21.56751953 48.86857422 21.56751953 48.92578125 23.23046875 C48.035161 30.59238476 43.85486832 36.06390432 39.0625 41.5 C38.54461914 42.09635254 38.02673828 42.69270508 37.49316406 43.30712891 C32.81741327 48.58941058 27.74600711 53.35432897 22.48046875 58.0390625 C19.21419064 60.95549281 16.26368306 64.12881192 13.37890625 67.421875 C11.5 68.75 11.5 68.75 8.76953125 69.42578125 C3.65007831 68.36763865 1.0909309 64.93400626 -2.375 61.1875 C-3.72396406 59.76705904 -5.0755211 58.34907597 -6.4296875 56.93359375 C-7.09806641 56.23161865 -7.76644531 55.52964355 -8.45507812 54.80639648 C-10.46542242 52.7847716 -12.546672 50.91725934 -14.7109375 49.0625 C-22.32917624 42.52685308 -30.55791189 33.94248041 -31.90625 23.6484375 C-32.24187785 16.34853174 -31.48579685 11.22069978 -26.5 5.75 C-19.05270944 -1.68099452 -10.20495129 -3.64462546 0 0 Z M-22.875 12.4375 C-25.0600326 16.89160491 -25.4961539 19.89902406 -24.5 24.75 C-20.318785 33.41115042 -13.73860066 40.19815921 -6.99267578 46.88867188 C-5.35233921 48.52257187 -3.74075395 50.18179052 -2.12890625 51.84375 C-1.08495275 52.89223991 -0.03943676 53.93917694 1.0078125 54.984375 C1.4850174 55.47999939 1.96222229 55.97562378 2.45388794 56.48626709 C4.63702161 58.60995817 5.91473833 59.72805837 9.01367188 59.84423828 C12.27286593 58.40986006 14.24798873 56.52049957 16.7734375 54.0078125 C17.26027008 53.52480682 17.74710266 53.04180115 18.24868774 52.54415894 C19.27716139 51.51840247 20.30062001 50.48759627 21.31933594 49.45214844 C22.84954842 47.90080308 24.39952133 46.3716252 25.953125 44.84375 C37.12663981 34.03755061 37.12663981 34.03755061 42.1875 19.9375 C41.67568109 14.31752762 38.97787225 11.08712251 34.875 7.375 C30.29275886 5.16873575 26.49729143 4.82486852 21.5 5.75 C17.30102672 7.73197806 13.86058243 10.72312409 11.5 14.75 C11.5 15.41 11.5 16.07 11.5 16.75 C9.52 16.75 7.54 16.75 5.5 16.75 C5.273125 16.193125 5.04625 15.63625 4.8125 15.0625 C2.52395941 11.03030943 -0.67587898 8.29941401 -4.5 5.75 C-12.57454182 4.55480104 -17.42832437 6.27415652 -22.875 12.4375 Z " fill="#D7D7D7" transform="translate(39.5,15.25)"/>
</svg>
