<?xml version="1.0" encoding="UTF-8"?>
<svg version="1.1" xmlns="http://www.w3.org/2000/svg" width="512" height="512">
<path d="M0 0 C15.53221092 11.44206205 25.86639023 27.65001684 29.1640625 46.74804688 C30.31319852 55.16708662 30.30758731 63.56599675 30.29777527 72.04814148 C30.29964607 73.58875754 30.30194784 75.12937313 30.30464059 76.66998798 C30.31073176 80.88262934 30.31062817 85.09525078 30.30944622 89.30789554 C30.30924153 93.85951787 30.31476746 98.41113392 30.31950378 102.9627533 C30.32779621 111.87257405 30.33055799 120.78238819 30.33111616 129.69221248 C30.331592 136.93774662 30.33365013 144.18327858 30.33681679 151.42881203 C30.34561959 171.98998233 30.35023676 192.55114741 30.34948631 213.11231961 C30.34944636 214.21986107 30.3494064 215.32740253 30.34936523 216.46850586 C30.34932435 217.57740611 30.34928347 218.68630637 30.34924135 219.82880966 C30.34883501 237.79499299 30.35840257 255.76115535 30.3725036 273.72733261 C30.38688202 292.19325576 30.39377298 310.65916869 30.39290982 329.12509757 C30.39257836 339.48489856 30.3953034 349.84467756 30.40608788 360.2044735 C30.41521218 369.02571212 30.41735231 377.84691879 30.41057845 386.6681601 C30.40732296 391.16417684 30.40722133 395.66013235 30.4159317 400.15614319 C30.42384076 404.28115909 30.42232073 408.40606565 30.41364757 412.53107903 C30.41212222 414.014214 30.41389183 415.4973573 30.41950765 416.98048242 C30.50429264 440.98385892 26.04437213 461.71558913 9.1640625 479.74804688 C-5.98568351 494.58517908 -24.0230811 500.29348751 -44.83764648 500.16601562 C-63.43671921 499.70310023 -79.93285527 492.83908639 -93.11328125 479.66992188 C-106.2289133 465.59460943 -113.9465517 449.30566801 -113.96736526 429.89751339 C-113.9694179 429.24191859 -113.97147053 428.58632379 -113.97358537 427.91086248 C-113.97922207 425.72269586 -113.97780226 423.53459285 -113.97637939 421.34642029 C-113.97896495 419.75818293 -113.98197864 418.16994622 -113.9853828 416.5817104 C-113.99343378 412.22354367 -113.99524131 407.86539343 -113.99598026 403.50722015 C-113.99783414 398.80423218 -114.00538318 394.1012527 -114.01211548 389.39826965 C-114.02568599 379.11708148 -114.03172157 368.83589721 -114.03612614 358.55470157 C-114.03889083 352.13206382 -114.04312861 345.70942758 -114.04763031 339.28679085 C-114.05982149 321.49587696 -114.07012098 303.70496427 -114.0735054 285.91404629 C-114.07372497 284.77581606 -114.07394453 283.63758583 -114.07417075 282.46486378 C-114.07438903 281.32394699 -114.07460731 280.1830302 -114.0748322 279.00754017 C-114.07527566 276.69570061 -114.07572223 274.38386104 -114.07617188 272.07202148 C-114.0763933 270.92527504 -114.07661473 269.77852859 -114.07684287 268.59703226 C-114.08078958 250.02212002 -114.09824041 231.44724705 -114.1215314 212.87234997 C-114.14526422 193.7906698 -114.15770814 174.70900931 -114.15887332 155.62731415 C-114.15978901 144.91816669 -114.16551469 134.20907039 -114.18369293 123.49993706 C-114.19912 114.37958403 -114.20419902 105.25929797 -114.19595483 96.13893437 C-114.19205751 91.48911401 -114.19293291 86.83942842 -114.20701218 82.18962479 C-114.21980626 77.92510184 -114.21850561 73.66081414 -114.20642146 69.39629126 C-114.20447396 67.86126603 -114.20749867 66.32622382 -114.21626583 64.79122239 C-114.32699022 44.07791511 -109.42186279 26.76169765 -95.8359375 10.74804688 C-95.20945312 10.008125 -94.58296875 9.26820312 -93.9375 8.50585938 C-70.0463397 -17.40143259 -28.18442299 -19.21937781 0 0 Z " fill="#000000" transform="translate(431.8359375,12.251953125)"/>
<path d="M0 0 C15.97833011 12.81067083 25.36357116 29.57862985 28.32275391 49.75244141 C28.7194452 55.171644 28.7297234 60.56675021 28.70370483 65.99584961 C28.70716944 67.59013087 28.71193935 69.18440973 28.71788657 70.77868366 C28.73031606 75.1210981 28.72426323 79.46331268 28.71492791 83.80572748 C28.70810447 88.5038295 28.71863489 93.20189856 28.72686768 97.8999939 C28.74017221 107.088357 28.73734192 116.27664638 28.72862975 125.46501231 C28.72184067 132.93596038 28.72094177 140.40688786 28.7242012 147.87783813 C28.7246609 148.94318859 28.7251206 150.00853905 28.72559423 151.10617286 C28.72655345 153.27075315 28.7275261 155.43533344 28.728512 157.59991372 C28.73705629 177.8731372 28.72724686 198.14631991 28.7111109 218.41953671 C28.69770861 235.79582483 28.70003697 253.17205281 28.71386719 270.54833984 C28.72993999 290.75152545 28.73623241 310.95467537 28.7270304 331.15786648 C28.7260748 333.31425921 28.72513169 335.47065194 28.7242012 337.62704468 C28.72373838 338.68789144 28.72327555 339.74873821 28.7227987 340.84173185 C28.72021391 348.29933267 28.72456876 355.75691076 28.73163986 363.21450806 C28.74007397 372.30908296 28.73773464 381.40358023 28.72179763 390.4981463 C28.71394059 395.13383138 28.7107793 399.76938727 28.72074509 404.40507126 C28.72974597 408.6563735 28.72467124 412.90742792 28.70881243 417.15870798 C28.7054873 418.68880864 28.70710697 420.21893065 28.71443979 421.74901736 C28.80594024 442.44455651 23.89668384 459.75292949 10.32275391 475.75244141 C9.69626953 476.49236328 9.06978516 477.23228516 8.42431641 477.99462891 C-2.1422146 489.45285029 -18.82482201 497.80325587 -34.45410156 498.95751953 C-57.40257236 499.70704466 -76.53755281 495.57054114 -93.77099609 479.66650391 C-108.11397861 465.6717434 -115.20381855 447.32885733 -115.77089727 427.47337401 C-115.8090647 423.47872929 -115.81554283 419.48470434 -115.81095886 415.48994446 C-115.81282911 413.94122916 -115.81513067 412.39251433 -115.81782418 410.84380025 C-115.82392215 406.60416581 -115.82381096 402.36455115 -115.82262981 398.12491333 C-115.82242529 393.54602578 -115.82794942 388.9671445 -115.83268738 384.38825989 C-115.8409836 375.42315798 -115.84374176 366.45806264 -115.84429976 357.49295721 C-115.84477542 350.20305418 -115.84683271 342.91315331 -115.85000038 335.62325096 C-115.85880431 314.9404318 -115.86342019 294.25761782 -115.86266991 273.57479677 C-115.86262995 272.46045319 -115.86259 271.34610961 -115.86254883 270.19799805 C-115.86250795 269.08228875 -115.86246707 267.96657946 -115.86242495 266.81706079 C-115.8620186 248.74020743 -115.87158603 230.6633749 -115.88568719 212.58652756 C-115.90006262 194.01102971 -115.90695673 175.43554201 -115.90609342 156.86003846 C-115.90576184 146.4370973 -115.90849165 136.01417798 -115.91927147 125.59124184 C-115.92839184 116.71615167 -115.93053912 107.84109325 -115.92376205 98.96600042 C-115.92050455 94.44176094 -115.92041224 89.91758232 -115.9291153 85.39334869 C-115.93701541 81.2436731 -115.93551328 77.09410629 -115.92683116 72.94443323 C-115.92530386 71.45119203 -115.92708295 69.95794256 -115.93269124 68.46471111 C-116.01592598 44.71098058 -111.25659542 24.46339711 -94.67724609 6.75244141 C-69.54322747 -17.86293873 -28.40908319 -21.13106479 0 0 Z " fill="#000000" transform="translate(165.67724609375,13.24755859375)"/>
</svg>
