<?xml version="1.0" encoding="UTF-8"?>
<svg version="1.1" xmlns="http://www.w3.org/2000/svg" width="90" height="90">
<path d="M0 0 C6.5369807 0 6.88414402 0.12153546 11.1796875 4.3828125 C12.1078125 5.30320312 13.0359375 6.22359375 13.9921875 7.171875 C14.46495117 7.65720703 14.93771484 8.14253906 15.42480469 8.64257812 C16.87110964 10.12102319 18.346653 11.56470531 19.828125 13.0078125 C20.74851562 13.9359375 21.66890625 14.8640625 22.6171875 15.8203125 C23.87958252 17.09285889 23.87958252 17.09285889 25.16748047 18.39111328 C27 21 27 21 27.54785156 24 C26.8357836 27.89923848 25.39677971 29.3777436 22.6171875 32.1796875 C21.69679688 33.1078125 20.77640625 34.0359375 19.828125 34.9921875 C19.34279297 35.46495117 18.85746094 35.93771484 18.35742188 36.42480469 C16.87897681 37.87110964 15.43529469 39.346653 13.9921875 40.828125 C13.0640625 41.74851563 12.1359375 42.66890625 11.1796875 43.6171875 C10.33132324 44.45878418 9.48295898 45.30038086 8.60888672 46.16748047 C6 48 6 48 0 48 C0 43.38 0 38.76 0 34 C-13.79651978 35.18660696 -28.07913218 37.3128021 -38 48 C-41.7138581 53.58447458 -43.67039353 59.47284095 -45 66 C-46.98 66 -48.96 66 -51 66 C-51.85927835 51.20131723 -48.06115981 39.23304648 -38.2265625 27.96875 C-29.27203857 19.35427128 -16.70903031 14.94374807 -4.4375 14.875 C-2.973125 14.91625 -1.50875 14.9575 0 15 C0 10.05 0 5.1 0 0 Z " fill="#D7D7D7" transform="translate(57,12)"/>
</svg>
