<?xml version="1.0" encoding="UTF-8"?>
<svg version="1.1" xmlns="http://www.w3.org/2000/svg" width="96" height="96">
<path d="M0 0 C3.01468371 1.50734185 4.81570691 2.52608692 7.2421875 4.64453125 C7.83386719 5.15693359 8.42554687 5.66933594 9.03515625 6.19726562 C9.64230469 6.73029297 10.24945313 7.26332031 10.875 7.8125 C12.08039367 8.86106288 13.28611986 9.90924364 14.4921875 10.95703125 C15.36568848 11.71814209 15.36568848 11.71814209 16.25683594 12.49462891 C18.80896112 14.69860704 21.40174584 16.85067966 24 19 C22.69853887 21.92985745 21.40795226 23.78618733 18.953125 25.83984375 C18.355 26.34580078 17.756875 26.85175781 17.140625 27.37304688 C16.51671875 27.88931641 15.8928125 28.40558594 15.25 28.9375 C14.6415625 29.44990234 14.033125 29.96230469 13.40625 30.49023438 C12.19709767 31.50690412 10.98424994 32.51919658 9.76757812 33.52685547 C8.59515462 34.50398302 7.43218228 35.4925706 6.27929688 36.49267578 C2.21233269 40 2.21233269 40 0 40 C-0.33 35.38 -0.66 30.76 -1 26 C-10.08728968 30.08928036 -15.61394481 36.60177978 -22 44 C-22.66128906 44.76183594 -23.32257812 45.52367187 -24.00390625 46.30859375 C-24.55949219 46.94925781 -25.11507812 47.58992188 -25.6875 48.25 C-36.34043346 60.44311661 -48.13002774 70.91529704 -65.046875 72.23828125 C-67.36592308 72.24810772 -69.68505297 72.13820579 -72 72 C-72 69.03 -72 66.06 -72 63 C-71.20078125 62.92523438 -70.4015625 62.85046875 -69.578125 62.7734375 C-47.99998813 60.19013942 -35.59131828 45.23464085 -22.25 29.625 C-16.70532282 23.29198009 -11.10838765 18.67136803 -3 16 C-2.01 16 -1.02 16 0 16 C0 10.72 0 5.44 0 0 Z " fill="#FF8ADE" transform="translate(72,4)"/>
<path d="M0 0 C1.02083333 0.875 2.04166667 1.75 3.0625 2.625 C4.01962891 3.44097656 4.01962891 3.44097656 4.99609375 4.2734375 C6.29191002 5.38991078 7.57668682 6.5193839 8.84765625 7.6640625 C9.43417969 8.18742187 10.02070312 8.71078125 10.625 9.25 C11.15351562 9.72953125 11.68203125 10.2090625 12.2265625 10.703125 C14.38449752 12.39380304 14.38449752 12.39380304 19 14 C19.33 9.38 19.66 4.76 20 0 C23.01468371 1.50734185 24.81570691 2.52608692 27.2421875 4.64453125 C27.83386719 5.15693359 28.42554688 5.66933594 29.03515625 6.19726562 C29.64230469 6.73029297 30.24945313 7.26332031 30.875 7.8125 C32.08039367 8.86106288 33.28611986 9.90924364 34.4921875 10.95703125 C35.07452148 11.46443848 35.65685547 11.9718457 36.25683594 12.49462891 C38.80896112 14.69860704 41.40174584 16.85067966 44 19 C42.69853887 21.92985745 41.40795226 23.78618733 38.953125 25.83984375 C38.355 26.34580078 37.756875 26.85175781 37.140625 27.37304688 C36.51671875 27.88931641 35.8928125 28.40558594 35.25 28.9375 C34.33734375 29.70610352 34.33734375 29.70610352 33.40625 30.49023438 C32.19709767 31.50690412 30.98424994 32.51919658 29.76757812 33.52685547 C28.59515462 34.50398302 27.43218228 35.4925706 26.27929688 36.49267578 C22.21233269 40 22.21233269 40 20 40 C20 34.72 20 29.44 20 24 C18.02 23.67 16.04 23.34 14 23 C6.318416 19.58053494 0.62858751 14.1180299 -5 8 C-3.58208437 5.06553114 -2.01667393 2.56667591 0 0 Z " fill="#FF89DD" transform="translate(52,52)"/>
<path d="M0 0 C13.12572635 -0.93016958 23.54450525 3.17100634 34 11 C36.16290532 12.91189116 38.06233466 14.85285733 40 17 C38.70700306 19.88437779 37.34058637 21.87219421 35 24 C31.86505663 22.57694705 29.45067742 20.8258839 26.8125 18.625 C19.43492953 12.84550261 12.6614782 10.64492193 3.40625 9.39453125 C1 9 1 9 0 8 C-0.14115161 5.32941149 -0.04247107 2.67567762 0 0 Z " fill="#FF89DE" transform="translate(0,20)"/>
</svg>
